<?xml version="1.0" encoding="utf-8"?>
<!-- Generator: Adobe Illustrator 16.0.5, SVG Export Plug-In . SVG Version: 6.00 Build 0)  -->
<!DOCTYPE svg PUBLIC "-//W3C//DTD SVG 1.1 Tiny//EN" "http://www.w3.org/Graphics/SVG/1.1/DTD/svg11-tiny.dtd">
<svg version="1.1" baseProfile="tiny" id="Layer_1" xmlns="http://www.w3.org/2000/svg" xmlns:xlink="http://www.w3.org/1999/xlink"
	 x="0px" y="0px" width="216px" height="229.45996px" viewBox="0 0 216 229.45996" xml:space="preserve">
<polygon fill="#FFCF01" points="107.97754,121.76953 76.66797,78.54932 76.66797,109.98779 89.20947,109.98779 89.20947,141.01758 
	31.24609,141.01758 31.24609,109.98779 43.00439,109.98779 43.00439,61.65234 31.24609,61.65234 31.24609,30.62744 
	76.75342,30.62744 108.15137,74.25049 139.58691,30.62744 185.0791,30.62744 185.0791,61.65234 173.33789,61.65234 
	173.33789,109.98779 185.0791,109.98779 185.0791,141.01758 127.15918,141.01758 127.15918,109.98779 139.67969,109.98779 
	139.67969,78.54932 "/>
<g>
	<path fill="#FFFFFF" d="M30.34131,188.09668V155.8877h4.10498v28.64062h11.82129v3.56836H30.34131z"/>
	<path fill="#FFFFFF" d="M54.78662,188.09668h-4.104V155.8877h4.104V188.09668z"/>
	<path fill="#FFFFFF" d="M62.95068,188.09668V155.8877h10.48389c4.46094,0,5.97754,1.51758,7.18311,3.30273
		c1.11328,1.73633,1.29199,3.6582,1.29199,4.28125c0,4.01367-1.38135,6.69141-5.53076,7.62695v0.22461
		c4.59424,0.53516,6.60303,3.30078,6.60303,7.7168c0,8.25586-6.02197,9.05664-9.68213,9.05664H62.95068z M67.05566,169.4502h5.97754
		c3.21289-0.04492,4.77344-2.00781,4.77344-5.12891c0-2.67773-1.5166-4.86523-4.95166-4.86523h-5.79932V169.4502z
		 M67.05566,184.52832h5.79932c4.37158,0,5.93213-3.12109,5.93213-5.48828c0-5.13086-3.1665-6.02148-7.36035-6.02148h-4.37109
		V184.52832z"/>
	<path fill="#FFFFFF" d="M93.82031,173.28418v14.8125h-4.10449V155.8877h11.10938c5.70996,0,7.71777,4.01367,7.71777,8.0293
		c0,3.79102-2.09668,6.69336-5.88965,7.36133v0.0918c3.7041,0.57617,5.04004,1.82617,5.26367,8.29492
		c0.0459,1.38281,0.49121,6.42578,1.11621,8.43164h-4.28418c-1.1582-2.23047-0.8916-6.42383-1.24707-10.70703
		c-0.31348-3.92578-3.48047-4.10547-4.86328-4.10547H93.82031z M93.82031,169.71777h6.15723
		c2.94434,0,4.37207-2.54297,4.37207-5.35352c0-2.31836-1.16113-4.9082-4.32812-4.9082h-6.20117V169.71777z"/>
	<path fill="#FFFFFF" d="M121.87988,155.8877h5.2207l10.48242,32.20898h-4.59375l-2.31934-7.67383h-12.44824l-2.40918,7.67383
		h-4.15039L121.87988,155.8877z M124.37793,159.68066h-0.08789l-5.04199,17.17383h10.30566L124.37793,159.68066z"/>
	<path fill="#FFFFFF" d="M145.87988,173.28418v14.8125h-4.10449V155.8877h11.10645c5.71191,0,7.71777,4.01367,7.71777,8.0293
		c0,3.79102-2.0957,6.69336-5.8877,7.36133v0.0918c3.70312,0.57617,5.04297,1.82617,5.26367,8.29492
		c0.04395,1.38281,0.49219,6.42578,1.11719,8.43164h-4.28418c-1.16016-2.23047-0.8916-6.42383-1.24805-10.70703
		c-0.31152-3.92578-3.47949-4.10547-4.86328-4.10547H145.87988z M145.87988,169.71777h6.15527
		c2.94531,0,4.37207-2.54297,4.37207-5.35352c0-2.31836-1.1582-4.9082-4.32617-4.9082h-6.20117V169.71777z"/>
	<path fill="#FFFFFF" d="M180.80957,155.8877h4.15039l-8.79004,19.94336v12.26562h-4.10352v-12.26562l-8.65527-19.94336h4.59473
		l6.29199,15.57031L180.80957,155.8877z"/>
</g>
</svg>
