<?xml version="1.0" encoding="utf-8"?>
<!-- Generator: Adobe Illustrator 16.0.5, SVG Export Plug-In . SVG Version: 6.00 Build 0)  -->
<!DOCTYPE svg PUBLIC "-//W3C//DTD SVG 1.1 Tiny//EN" "http://www.w3.org/Graphics/SVG/1.1/DTD/svg11-tiny.dtd">
<svg version="1.1" baseProfile="tiny" id="Layer_1" xmlns="http://www.w3.org/2000/svg" xmlns:xlink="http://www.w3.org/1999/xlink"
	 x="0px" y="0px" width="792px" height="193.00195px" viewBox="0 0 792 193.00195" xml:space="preserve">
<g>
	<g>
		<path fill="#002E5E" d="M275.13281,114.93066V42.57812h9.21875v64.33496h26.55615v8.01758H275.13281z"/>
		<path fill="#002E5E" d="M330.99121,114.93066h-9.21924V42.57812h9.21924V114.93066z"/>
		<path fill="#002E5E" d="M344.12891,114.93066V42.57812h23.55029c10.02002,0,13.42822,3.4082,16.1333,7.41602
			c2.50586,3.90918,2.90625,8.21875,2.90625,9.62012c0,9.01855-3.10547,15.03223-12.42627,17.13574v0.50195
			c10.32324,1.20312,14.83252,7.41504,14.83252,17.33594c0,18.53809-13.53076,20.34277-21.74707,20.34277H344.12891z
			 M353.34912,73.04297h13.42676C373.9917,72.94238,377.5,68.5332,377.5,61.51855c0-6.0127-3.40869-10.92285-11.12451-10.92285
			h-13.02637V73.04297z M353.34912,106.91309h13.02637c9.8208,0,13.3291-7.01465,13.3291-12.3252
			c0-11.52441-7.11572-13.52832-16.53467-13.52832h-9.8208V106.91309z"/>
		<path fill="#002E5E" d="M408.27344,81.66113v33.26953h-9.21875V42.57812h24.95117c12.82812,0,17.33594,9.02051,17.33594,18.03809
			c0,8.51855-4.70898,15.03125-13.22656,16.53516v0.20117c8.31836,1.30176,11.32227,4.10742,11.82422,18.63867
			c0.10156,3.10547,1.10156,14.42871,2.50586,18.93945h-9.61914c-2.60547-5.01074-2.00586-14.43066-2.80859-24.05078
			c-0.70117-8.81738-7.81445-9.21875-10.91992-9.21875H408.27344z M408.27344,73.64453h13.83008
			c6.61328,0,9.82031-5.71289,9.82031-12.02637c0-5.20996-2.60742-11.02246-9.7207-11.02246h-13.92969V73.64453z"/>
		<path fill="#002E5E" d="M473.66602,42.57812h11.72461l23.55078,72.35254h-10.32227l-5.21094-17.23633h-27.95703l-5.41211,17.23633
			h-9.32031L473.66602,42.57812z M479.2793,51.0957h-0.20117l-11.32227,38.58105h23.14844L479.2793,51.0957z"/>
		<path fill="#002E5E" d="M527.10547,81.66113v33.26953h-9.21875V42.57812h24.95117c12.82812,0,17.33789,9.02051,17.33789,18.03809
			c0,8.51855-4.71094,15.03125-13.22852,16.53516v0.20117c8.31836,1.30176,11.32422,4.10742,11.82422,18.63867
			c0.10156,3.10547,1.10156,14.42871,2.50586,18.93945h-9.61914c-2.60547-5.01074-2.00391-14.43066-2.80664-24.05078
			c-0.70312-8.81738-7.81641-9.21875-10.92188-9.21875H527.10547z M527.10547,73.64453h13.83008
			c6.61328,0,9.82031-5.71289,9.82031-12.02637c0-5.20996-2.60742-11.02246-9.7207-11.02246h-13.92969V73.64453z"/>
		<path fill="#002E5E" d="M604.15039,42.57812h9.32031l-19.74219,44.79395v27.55859h-9.2207V87.37207l-19.43945-44.79395h10.32227
			l14.12891,34.97363L604.15039,42.57812z"/>
	</g>
	<g>
		<path fill="#002E5E" d="M691.89648,149.85449v-1.1875c1.50391-0.09961,2.66211-0.22168,2.66211-1.44531
			c0-0.43555-0.13281-0.90723-0.25977-1.31836l-0.65234-2.24609h-7.79883l-0.6875,1.90234
			c-0.15039,0.47949-0.28906,0.91406-0.28906,1.37891c0,1.56836,1.66406,1.66895,3.00781,1.72852v1.1875h-9.11133v-1.1875
			c2.32031-0.09961,3.07617-0.56641,3.92383-2.88672l5.97852-16.41016l-0.33789-0.53809
			c2.55273-0.83691,3.27734-1.22559,4.37695-2.03516c0.44336,1.49902,0.5,1.69531,0.99805,3.2627l4.89844,15.03125
			c0.87109,2.66699,1.28516,3.3252,3.62305,3.57617v1.1875H691.89648z M689.90625,132.10059l-3.24609,9.1748h6.35742
			L689.90625,132.10059z"/>
		<path fill="#002E5E" d="M611.7832,144.94141c-0.98242,1.59375-3.33203,5.50977-9.42773,5.50977
			c-6.67188,0-10.98438-4.91113-10.98438-11.37305c0-5.98242,3.6582-11.875,11.12891-11.875
			c3.92383,0,6.01367,1.65234,7.29883,2.66309l1.50586-1.37402l0.12305,6.7041l-0.98047,0.18262
			c-0.38672-1.28516-0.95312-2.31543-2.38672-3.88184c-0.67773-0.71484-2.31055-2.16699-4.625-2.16699
			c-4.00391,0-7.15234,3.2627-7.15234,9.00195c0,4.84961,2.59766,9.42578,7.70703,9.42578c3.86523,0,5.32031-2.1582,6.47461-3.81445
			L611.7832,144.94141z"/>
		<path fill="#002E5E" d="M616.62109,149.85449v-1.1875c2.51562-0.22168,2.54102-0.75684,2.54102-2.88672
			c0.03711-0.77637,0.03711-1.56738,0.03711-2.3457v-9.27637c0-1.44238,0-2.88086-0.10352-3.57324
			c-0.125-1.31445-0.75391-1.49512-2.47461-1.66113v-1.18359h9.47852v1.18359c-1.85156,0.19531-2.54102,0.25488-2.76758,1.47559
			c-0.1543,0.71191-0.17969,2.3457-0.17969,3.66895v3.04688c1.89844,0.10254,3.24219,0.15137,5.09766,0.15137
			c1.87305,0,3.35352-0.04883,5.24023-0.15137v-3.70801c-0.02734-4.03711-0.06055-4.20605-3.06836-4.4834v-1.18359h9.5918v1.18359
			c-2.57227,0.31543-2.57227,0.34668-2.57227,4.5498v9.33691c0,0.86523,0.02734,3.66309,0.12695,4.32227
			c0.15625,1.15527,0.81445,1.37402,2.44531,1.53418v1.1875h-9.5918v-1.1875c2.21875-0.25098,2.81641-0.31348,3.00781-1.84082
			c0.06055-0.63965,0.06055-1.47754,0.06055-3.0791v-4.05859c-1.74609-0.05664-3.21289-0.15527-5.03711-0.15527
			c-1.91406,0-3.40234,0.0625-5.30078,0.15527v4.05859c0.02539,4.60645,0.08984,4.60645,2.94727,4.91992v1.1875H616.62109z"/>
		<path fill="#002E5E" d="M643.92188,149.85449v-1.1875c2.16602-0.28906,2.60352-0.53418,2.63477-2.85156v-2.82129v-8.96484
			c-0.03125-4.59473-0.03125-4.72363-2.63477-5.10547v-1.18359h9.20508v1.18359c-2.60352,0.25488-2.60352,0.38184-2.60352,5.10547
			v8.93945c0,0.77832,0.02539,3.26074,0.08594,3.90918c0.15625,1.34668,0.7832,1.66406,2.51758,1.78906v1.1875H643.92188z"/>
		<path fill="#002E5E" d="M579.79297,149.85449v-1.1875c2.16406-0.28906,2.5957-0.53418,2.62891-2.85156v-2.82129v-8.96484
			c-0.0332-4.59473-0.0332-4.72363-2.62891-5.10547v-1.18359h9.17773v1.18359c-2.59961,0.25488-2.59961,0.38184-2.59961,5.10547
			v8.93945c0,0.77832,0.03906,3.26074,0.10352,3.90918c0.14844,1.34668,0.7793,1.66406,2.49609,1.78906v1.1875H579.79297z"/>
		<path fill="#002E5E" d="M565.85742,149.85449v-1.1875c2.7832-0.18848,2.7832-0.31348,2.81445-4.41309v-11.12402l-7.73633,17.00586
			h-1.94336l-7.11133-17.23633l-0.16016,13.00391c0,2.16895,0.25586,2.5752,2.59961,2.76367v1.1875h-7.66992v-1.1875
			c1.78125-0.09961,2.48242-0.3418,2.59375-1.84082c0.06055-0.59668,0.15625-2.45508,0.1875-3.67969l0.31445-9.27051
			c0.03516-0.72461,0.03516-1.78223,0.03516-2.57129c0-2.18555-0.44336-2.34668-2.41797-2.38086v-1.18359h6.95703l6.89844,16.79395
			l7.58203-16.79395h6.73633v1.30859c-2.63867,0.15234-2.66602,0.44629-2.63867,3.88379v9.12207
			c0,1.50977,0.03516,3.38184,0.12695,4.51367c0.12891,1.63184,0.75977,1.93848,2.51172,2.09863v1.1875H565.85742z"/>
		<path fill="#002E5E" d="M703.66797,149.85449v-1.1875c1.82227-0.09961,2.50977-0.125,2.76758-1.38281
			c0.30664-1.46875,0.40625-14.59375,0.42773-16.88477c-1.2207-1.12891-1.71875-1.35059-3.19531-1.47559v-1.18359h6.65234
			c1.8418,2.63477,2.25,3.21875,5.51172,7.26172l6.17188,7.64941v-9.90625c-0.02734-3.50586-0.12109-3.69629-3.63672-3.82129
			v-1.18359h8.72461v1.18359c-2.42383,0.03418-2.63477,0.53027-2.66406,4.13965l-0.31445,17.07227h-1.33398l-1.9668-2.46973
			c-0.99805-1.25293-2.00391-2.50977-3.00977-3.72949l-8.73633-10.78516v11.4668c0,3.58203,0.24219,3.70703,3.62891,4.04883v1.1875
			H703.66797z"/>
		<path fill="#002E5E" d="M518.00391,138.7666c0,7.64648-5.2168,11.65918-11.08203,11.65918
			c-6.43359,0-11.45508-4.64551-11.45508-11.69043c0-6.04492,4.05078-11.50293,11.1582-11.46875
			C513.32617,127.29199,518.00391,132.05176,518.00391,138.7666z M506.94922,148.37793
			c1.25391-0.03125,3.01562-0.65137,4.38672-2.72949c1.55859-2.40332,1.87891-4.60547,1.78711-7.48633
			c-0.09375-2.8457-0.88086-5.29688-2.50586-7.04199c-0.71289-0.75684-2.10938-1.87109-3.96094-1.81445
			c-1.8457,0-3.20898,1.16016-3.90039,1.93945c-1.57422,1.78125-2.29102,4.25977-2.29102,7.10938
			c0,2.88281,0.39258,5.08008,2.01172,7.42578C503.92188,147.82031,505.69531,148.37793,506.94922,148.37793z"/>
		<path fill="#002E5E" d="M520.22461,148.63281v1.22168h9.16016v-1.22168c-2.28906-0.2168-2.57227-0.43262-2.64648-2.85254
			l0.02539-6.30859h2.45312c2.46484,0,3.78516,0.23828,3.9375,2.70703h1.06836v-7.2998h-1.06836
			c-0.125,2.38379-0.77734,2.625-3.47461,2.625h-2.91602v-7.66797c0.79102-0.10254,1.22656-0.11621,2.63281-0.11621
			c4.33398,0,5.71484-0.01953,6.3125,3.43164h1.0918l-0.35352-5.41113h-16.22266v1.18359
			c1.58789,0.16602,2.2832,0.25488,2.50586,1.28613c0.15625,0.69043,0.18359,3.12891,0.18359,4.01074v7.76367
			c0,0.59961-0.03711,3.27148-0.07227,3.7959C522.78516,148.2002,522.50781,148.41602,520.22461,148.63281z"/>
		<path fill="#002E5E" d="M330.06641,149.70117v-1.19434c2.16895-0.28223,2.60254-0.52637,2.63135-2.85547v-2.81055v-8.96484
			c-0.02881-4.60547-0.02881-4.7373-2.63135-5.10352v-1.19434h9.19141v1.19434c-2.60059,0.25488-2.60059,0.36621-2.60059,5.10352
			v8.93457c0,0.77734,0.02539,3.26367,0.09424,3.91406c0.15723,1.34766,0.78174,1.65332,2.50635,1.78223v1.19434H330.06641z"/>
		<path fill="#002E5E" d="M427.5332,149.70117v-1.19434c2.15234-0.28223,2.59766-0.52637,2.61719-2.85547v-2.81055v-8.96484
			c-0.01953-4.60547-0.01953-4.7373-2.61719-5.10352v-1.19434h9.16992v1.19434c-2.60547,0.25488-2.60547,0.36621-2.60547,5.10352
			v8.93457c0,0.77734,0.03711,3.26367,0.10156,3.91406c0.1543,1.34766,0.78125,1.65332,2.50391,1.78223v1.19434H427.5332z"/>
		<path fill="#002E5E" d="M303.13184,149.70117v-1.19434c1.81934-0.09082,2.50391-0.12891,2.76074-1.37402
			c0.31396-1.48145,0.4043-14.60352,0.43555-16.8877c-1.22803-1.12598-1.72705-1.34961-3.19629-1.47266v-1.19434h6.6416
			c1.84912,2.63184,2.25342,3.22852,5.5166,7.27246l6.16748,7.64355v-9.90137c-0.02344-3.50293-0.11768-3.69727-3.63379-3.82031
			v-1.19434h8.70654v1.19434c-2.41016,0.02344-2.62158,0.5332-2.6499,4.13477l-0.3208,17.08105h-1.31104l-1.97168-2.48047
			c-1.01025-1.25781-2.00879-2.50391-3.01416-3.72754l-8.73828-10.78613v11.47266c0,3.57129,0.24902,3.69531,3.63672,4.04004
			v1.19434H303.13184z"/>
		<path fill="#002E5E" d="M409.24316,142.81055l1.13184-0.12695c1.2168,3.60742,3.25195,5.54102,6.57617,5.54102
			c2.3418,0,4.41992-1.00293,4.41992-3.38379c0-2.51172-2.4082-3.50488-3.48047-3.93945
			c-0.88086-0.35156-1.81055-0.63672-2.69336-0.97852c-1.81445-0.65625-5.23828-2.06152-5.23828-6.3584
			c0-4.12988,3.26367-6.46094,7.05078-6.46094c1.47852,0,3.19727,0.31641,5.08008,1.5166l1.34766-0.97168l0.7207,6.57227
			l-1.10156,0.21582c-0.38086-1.44238-0.66211-2.11035-1.53125-3.27148c-1.06641-1.37891-2.5625-2.02637-4.32422-2.02637
			c-2.35156,0-3.72461,1.13184-3.72461,2.89062c0,2.62793,2.60352,3.51562,5.07031,4.31543
			c1.25781,0.41797,2.28906,0.76172,3.18945,1.28516c1.75391,1.04297,3.20117,2.98145,3.20117,5.63867
			c0,3.83301-3.14062,6.99805-7.79688,6.99805c-3.00781,0-4.86523-1.19434-5.73047-1.75977l-1.8418-1.33398L409.24316,142.81055z"/>
		<path fill="#002E5E" d="M445.60742,149.70117v-0.94043c2.03906-0.03613,2.60156-0.78027,2.60156-2.53125v-16.30176h-2.75391
			c-2.49414,0-4.15234-0.10352-4.35156,3.84668h-1.15039l0.18164-6.19629h20.09961l0.17969,6.19629H459.25
			c-0.17969-3.9502-1.8418-3.84668-4.3457-3.84668h-2.75781v16.30176c0,1.75098,0.56836,2.49512,2.59766,2.53125v0.94043H445.60742z
			"/>
		<path fill="#002E5E" d="M285.09277,127.57812v1.19434c-2.94336,0.21387-2.94336,0.31738-2.97461,5.01367v5.19238
			c0,2.70703,0.05469,5.02441,1.47852,7.0957c1.12939,1.64062,3.05225,1.85645,4.02002,1.85645
			c3.16504,0,4.90918-1.63965,5.6665-4.25488c0.62451-2.05859,0.64941-5.94141,0.64941-8.51367c0-0.81055,0-3.45605-0.0249-4.16309
			c-0.13037-2.0127-1.16406-2.0752-3.13867-2.22656v-1.19434h8.42383v1.19434c-2.06201-0.04102-2.50342,0.42871-2.62598,2.63184
			c-0.03418,0.5293-0.2832,6.67578-0.3125,7.61523c-0.06689,1.67773-0.16309,3.35156-0.52979,4.94922
			c-1.50537,5.9502-7.30176,6.27246-8.83838,6.27246c-1.2251,0-3.72998-0.19629-5.79785-1.57422
			c-3.2915-2.22266-3.32764-5.54395-3.32764-9.11523v-5.01758c-0.02783-2.375-0.02783-3.4502-0.09033-4.0127
			c-0.19043-1.38281-0.87891-1.65039-2.5376-1.74902v-1.19434H285.09277z"/>
		<path fill="#002E5E" d="M364.62988,127.57812v1.19434c-2.12402,0.31738-2.42041,0.90527-4.22998,5.2959l-6.74219,16.06738
			h-1.18848l-6.0498-16.32031c-1.49805-4.20215-1.69336-4.69629-3.91211-5.04297v-1.19434h10.49561v1.19434
			c-1.78711,0.05957-2.9458,0.12305-2.9458,1.41113c0,0.62305,0.15527,1.16016,0.75488,3.00293l3.85547,11.25781l4.50439-11.63672
			c0.28271-0.77832,0.6582-1.78809,0.6582-2.3418c0-1.59473-1.56104-1.66992-2.94336-1.69336v-1.19434H364.62988z"/>
		<path fill="#002E5E" d="M469.50391,149.70117v-1.19434c1.73438-0.18164,2.39258-0.24414,2.82812-0.68652
			c0.50586-0.49512,0.50586-1.05762,0.52344-3.47363v-3.88965l-5.87109-9.11328c-1.60156-2.38574-1.63281-2.44824-3.75586-2.57129
			v-1.22559h11.51172v1.22559c-2.32227,0.05957-3.35352,0.12305-3.35352,1.18652c0,0.59863,0.4082,1.28613,0.97266,2.22559
			l3.38672,5.53711l3.12305-5.50781c0.56055-1.10254,0.87891-1.74805,0.87891-2.25488c0-1.06348-0.9043-1.08789-2.44531-1.18652
			v-1.22559h8.63672v1.22559c-2.23047,0.05957-2.87695,0.72266-5.40625,4.84961l-3.44336,5.76465v4.61621
			c0,4.00586,0.02148,4.32227,3.30469,4.50391v1.19434H469.50391z"/>
		<path fill="#002E5E" d="M383.58496,149.70117c0-1.60059,0.2749-4.22656,0.46729-5.73242h-1.06348
			c-0.76074,3.95117-2.97852,3.75781-6.17676,3.75781c-2.9458,0-3.53613-0.78809-3.53613-2.22754v-6.18555h2.38086
			c2.72168,0,3.50439,0.23828,3.50439,2.70996h1.06299v-7.29688h-1.06299c-0.21191,1.96582-0.61768,2.61523-3.47412,2.61523
			h-2.41113v-7.79492h2.71826c3.76465,0,5.11035,0.27734,5.61816,3.28613h1.00195l-0.13135-5.25488h-15.75977v1.18262
			c1.59326,0.16309,2.28369,0.25391,2.50732,1.29883c0.15869,0.68262,0.17822,3.11719,0.17822,3.99805v7.77832
			c0,0.5957-0.01953,3.25488-0.05078,3.79492c-0.06104,2.40723-0.35107,2.63184-2.63477,2.84766v1.22266H383.58496z"/>
		<path fill="#002E5E" d="M677.66797,140.08203v1.19336c-2.00781,0.11426-2.00781,0.6875-2.06445,4.88379v1.66113
			c-1.71289,1.06543-4.17383,2.60156-8.51562,2.60156c-7.61523,0-11.24805-5.77441-11.24805-11.56445
			c0-7.08008,4.7832-11.69531,10.79883-11.69531c3.77539,0,5.95703,1.41797,7.75586,2.51562l1.16211-1.31348l0.16406,6.91309
			l-0.89258,0.16699c-0.45898-1.31348-1.13867-2.83203-2.80078-4.50391c-0.74023-0.71582-2.14844-1.64453-4.37695-1.64453
			c-3.86328,0-7.07227,3.25488-7.07227,9.62109c0,5.08594,2.51367,9.43652,6.81055,9.43652
			c2.47266,0,3.72656-1.7207,3.84961-1.85547c0.39453-0.59473,0.48633-1.12402,0.44922-2.09375
			c-0.10352-2.82422-0.48438-2.88184-2.93164-3.12891v-1.19336H677.66797z"/>
		<path fill="#002E5E" d="M393.86084,137.83203c0.58887,0.12695,1.4375,0.22559,2.06689,0.22559
			c2.51172,0.00977,4.41797-1.96387,4.50586-3.73633c0.14258-2.55762-1.15625-4.78613-5.22607-4.78613
			c-0.56592,0-0.91309,0.02539-1.34668,0.11914V137.83203z M393.86084,142.6543c0.03564,5.07227,0.03564,5.76172,2.69238,5.82422
			v1.22266h-9.23975v-1.22266c2.37842-0.19043,2.63135-0.56836,2.66211-2.9502c0.02637-0.91016,0.02637-1.94043,0.02637-2.84473
			v-8.00586c0-2.65332-0.02637-3.59668-0.12256-4.31445c-0.15967-1.22461-0.75635-1.44922-2.56592-1.60254v-1.18262
			l10.02246,0.02832c5.45703,0,7.17578,2.60352,7.17578,5.67188c0,2.13574-1.3125,4.90723-4.36328,5.84082l3.92188,6.81543
			c1.41895,2.60742,2.16797,3.20703,3.95605,3.45312v0.74805c-0.47363,0.03613-0.9502,0.05859-1.44727,0.05859
			c-4.17188,0-5.89551-1.43359-7.64355-5.16699l-1.22461-2.5957c-1.31836-2.78809-1.75635-2.61914-3.8501-2.6543V142.6543z"/>
	</g>
	<rect x="246.00684" y="42.55078" fill="#002E5E" width="1.89844" height="107.83789"/>
	<path fill="#FFCF01" d="M140.31055,131.57227l-30.88477-42.20605v30.7041h12.2793v30.31836H64.9082v-30.31836h11.50977V72.86523
		H64.9082V42.55078h44.61719l30.78516,42.51367l30.7832-42.51367h44.60547v30.31445h-11.51465v47.20508h11.51465v30.31836H158.9082
		v-30.31836h12.27344v-30.7041L140.31055,131.57227z"/>
</g>
</svg>
