<?xml version="1.0" encoding="utf-8"?>
<!DOCTYPE svg PUBLIC "-//W3C//DTD SVG 1.1 Tiny//EN" "http://www.w3.org/Graphics/SVG/1.1/DTD/svg11-tiny.dtd">
<svg version="1.1" baseProfile="tiny" id="Layer_1" xmlns="http://www.w3.org/2000/svg" xmlns:xlink="http://www.w3.org/1999/xlink"
	 x="0px" y="0px" width="24px" height="24px" viewBox="0 0 24 24" xml:space="preserve">
<g>
	<path fill="#000" d="M11.1665,6.38281C9.60156,6.87793,8.3584,7.61621,7.43115,8.60596c-0.92432,0.9873-1.28564,2.26318-1.08008,3.82568
		c0.45215,0.37207,1.09033,0.75391,1.91406,1.14258c0.82422,0.39258,1.54492,0.69141,2.16064,0.89453
		c0.16553,0.6582,0.16553,1.30078,0,1.91406c-0.16357,0.61816-0.43213,1.16602-0.80176,1.6377
		c-0.37158,0.47266-0.80371,0.86426-1.2959,1.1709c-0.49512,0.30664-0.94727,0.4873-1.35889,0.52734
		c-1.44189-0.12598-2.69531-0.66309-3.76562-1.60742c-1.06982-0.94531-1.60498-2.30078-1.60498-4.07422
		c0-1.02734,0.17578-2.05762,0.5249-3.08496c0.34912-1.03027,0.87451-1.9873,1.5752-2.87109
		c0.69824-0.88428,1.58252-1.66797,2.65234-2.34619c1.07031-0.67822,2.34619-1.16309,3.82812-1.45215L11.1665,6.38281z
		 M22.40234,6.38281c-1.5625,0.49512-2.80859,1.2334-3.73242,2.22314c-0.9248,0.9873-1.28613,2.26318-1.08594,3.82568
		c0.45312,0.37207,1.0957,0.75391,1.91992,1.14258c0.82324,0.39258,1.53711,0.69141,2.16016,0.89453
		c0.16016,0.6582,0.16016,1.30078,0,1.91406c-0.16602,0.61816-0.43262,1.16602-0.80371,1.6377
		c-0.37207,0.47266-0.80371,0.86426-1.29688,1.1709c-0.49219,0.30664-0.94434,0.4873-1.35645,0.52734
		c-1.44629-0.12598-2.69727-0.66309-3.76758-1.60742c-1.07031-0.94531-1.60547-2.30078-1.60547-4.07422
		c0-1.02734,0.17383-2.05762,0.52539-3.08496c0.34961-1.03027,0.87402-1.9873,1.57227-2.87109
		c0.70312-0.88428,1.58789-1.66797,2.65234-2.34619c1.0752-0.67822,2.35156-1.16309,3.82812-1.45215L22.40234,6.38281z"/>
</g>
</svg>
