<?xml version="1.0" encoding="utf-8"?>
<!-- Generator: Adobe Illustrator 16.0.5, SVG Export Plug-In . SVG Version: 6.00 Build 0)  -->
<!DOCTYPE svg PUBLIC "-//W3C//DTD SVG 1.1 Tiny//EN" "http://www.w3.org/Graphics/SVG/1.1/DTD/svg11-tiny.dtd">
<svg version="1.1" baseProfile="tiny" id="Layer_1" xmlns="http://www.w3.org/2000/svg" xmlns:xlink="http://www.w3.org/1999/xlink"
	 x="0px" y="0px" width="24px" height="24px" viewBox="0 0 24 24" xml:space="preserve">
<g>
	<g>
		<path d="M9.3525391,7.6625977c-1.9804688,0-2.6376953,1.5009766-3.0400391,3.0175781
			C5.7636719,12.75,6.9365234,13.3115234,8.1699219,13.65625c1.0703125,0.2841797,2.7773438-0.2539062,3.1757812-1.769043
			C11.7558594,10.3725586,11.2207031,7.6625977,9.3525391,7.6625977z M9,12.5615234
			c-0.7666016,0-1.3945312-0.6118164-1.3945312-1.3789062c0-0.7802734,0.6279297-1.3930664,1.3945312-1.3930664
			c0.765625,0,1.3945312,0.612793,1.3945312,1.3930664C10.3945312,11.949707,9.765625,12.5615234,9,12.5615234z"/>
	</g>
	<g>
		<path d="M12.6542969,11.887207c0.3984375,1.5151367,2.1054688,2.0532227,3.1757812,1.769043
			c1.2333984-0.3447266,2.40625-0.90625,1.8574219-2.9760742c-0.4023438-1.5166016-1.0595703-3.0175781-3.0400391-3.0175781
			C12.7792969,7.6625977,12.2441406,10.3725586,12.6542969,11.887207z M13.6054688,11.1826172
			c0-0.7802734,0.6289062-1.3930664,1.3945312-1.3930664c0.7666016,0,1.3945312,0.612793,1.3945312,1.3930664
			c0,0.7670898-0.6279297,1.3789062-1.3945312,1.3789062C14.234375,12.5615234,13.6054688,11.949707,13.6054688,11.1826172z"/>
	</g>
</g>
<path d="M23,4.125"/>
<path d="M23,6c0-2.6601562-0.5302734-3-3.5-3c-1.1201172,0-2.1201172,0.5297852-2.7597656,1.3500977
	C15.3603516,3.4902344,13.7402344,3,12,3S8.6401367,3.4902344,7.2597656,4.3500977C6.6201172,3.5297852,5.6201172,3,4.5,3
	C1.5297852,3,1,3.3398438,1,6c0,2.3999023,1.7700195,3.4399414,2.2797852,3.7797852C3.1000977,10.4902344,3,11.2299805,3,12
	c0,2.4404297,0.9799805,4.6699219,2.5600586,6.2802734c-0.550293,1.4199219-0.6699219,3.0292969,0.699707,4.0498047
	c2.1401367,1.6103516,4.9404297,0.0400391,5.7602539-0.5605469c0.8198242,0.6005859,3.6098633,2.1708984,5.7602539,0.5605469
	c1.3701172-1.0302734,1.25-2.6396484,0.6796875-4.0703125C20.0302734,16.6503906,21,14.4296875,21,12
	c0-0.7700195-0.0996094-1.5097656-0.2802734-2.2202148C21.2304688,9.4399414,23,8.3999023,23,6z M17.4501953,16.3798828
	c-0.4101562-0.5996094-0.7900391-1.0302734-0.9599609-1.1396484c-0.4599609-0.2998047-1.2900391-0.7304688-2.7099609-0.9404297
	c0.109375-0.4902344-0.3203125-0.9501953-1.7602539-0.9501953c-1.4501953,0-1.8798828,0.4599609-1.7602539,0.9501953
	C8.8398438,14.5097656,8,14.9404297,7.5498047,15.2402344c-0.1699219,0.109375-0.5698242,0.5400391-0.9897461,1.1601562
	C5.5800781,15.2001953,5,13.6796875,5,12c0-3.8701172,3.1298828-7,7-7s7,3.1298828,7,7
	C19,13.6699219,18.4199219,15.1796875,17.4501953,16.3798828z"/>
</svg>
